<svg width="601" height="126" viewBox="0 0 601 126" fill="none" xmlns="http://www.w3.org/2000/svg">
<path d="M44.9 104.9C30.7 104.4 19.6 92.4 20.1 78.2C19.5 64 30.7 52 44.9 51.5C53.8 51.6 61.9 56.6 66.1 64.4L82.5 53.6C74.9 39.9 60.7 31.2 45 31C19.9 32.1 0.199992 53.1 0.899992 78.3C0.0999921 103.5 19.8 124.6 45 125.7C60.3 125.5 74.3 117.3 82 104.1L65.9 92.9C61.4 100.2 53.5 104.8 44.9 104.9ZM153.3 86.9C153.2 96.9 145 105 135 104.9H133.1C123.1 105 114.9 96.9 114.8 86.9V32.7H93V87.7C93.2 108.9 110.6 125.8 131.7 125.6H136.4C157.6 125.9 174.9 108.9 175.1 87.7V32.8H153.3V86.9ZM405.7 32.8H386V123.1H405.7V82C405.7 60.6 418.6 52.2 434.7 52.2V32.8C424.4 32.7 414.3 35.6 405.7 41.2V32.8ZM511.3 119.9C505.1 123.4 498.2 125.2 491.1 125.2C466.1 124.1 446.5 103.2 447 78.1V0.700012H466.4V33H500.2V52.4H466.7V78.2C466.4 92.1 477.2 103.8 491.1 104.6C494.4 104.6 497.6 103.9 500.6 102.6L511.3 119.9ZM556.5 30.4C531.2 31.3 511.4 52.6 512.2 77.8C510.2 103.6 530.6 125.6 556.5 125.6C582.3 125.6 602.7 103.6 600.8 77.8C601.6 52.6 582 31.4 556.8 30.4H556.5ZM556.5 104.6C542.2 104.2 531 92.2 531.5 77.9C530.8 63.7 542.2 51.7 556.4 51.7C570.7 51.7 582.1 63.7 581.3 77.9C581.8 92.1 570.8 104 556.7 104.6H556.5ZM233.1 30.4C224.3 30.4 215.7 33.2 208.5 38.4V0.799988H188.8V78.2C188 103.5 207.8 124.7 233.1 125.6C258.4 124.7 278.3 103.5 277.4 78.2C278.4 52.8 258.5 31.3 233.1 30.4ZM233.1 104.6C218.8 104.2 207.6 92.2 208.1 77.9C207.4 63.7 218.8 51.7 233 51.7C247.3 51.7 258.7 63.7 257.9 77.9C258.5 92.1 247.3 104.1 233.1 104.6ZM374.4 85.9C374.8 83.2 375 80.6 375 77.9C375 75.2 374.8 72.4 374.4 69.7C371.5 47.6 353 30.9 330.8 30.3C305.5 31.2 285.7 52.4 286.5 77.7C285.7 103 305.5 124.2 330.8 125.1C346 124.9 360 116.8 367.8 103.7L351.7 92.3C347.3 99.7 339.4 104.2 330.9 104.3C319.7 104 310 96.4 307.1 85.6L374.4 85.9ZM330.8 51.1C342 51.3 351.6 58.9 354.6 69.7H307.4C310.3 59 319.8 51.4 330.8 51.1Z" fill="black"/>
</svg>
